<svg width="969.63" height="125.46" version="1.1" viewBox="0 0 969.63 125.46" xmlns="http://www.w3.org/2000/svg">
 <g transform="matrix(1.3333,0,0,-1.3333,-119.48,188.18)" fill="#448cd2">
  <path d="m297.74 87.777c-0.625 0.09-1.441 0.184-2.054 0.184 0 0-5.465 0.035-6.129 0.055-0.618 0.019-1.235-0.207-1.625-0.68-0.071-0.086-0.122-0.168-0.137-0.242-0.883-3.531-2.567-6.438-5.043-8.719-2.309-2.078-4.961-3.316-7.953-3.715-0.598-0.058-1.168-0.086-1.707-0.086-2.282 0-4.43 0.598-6.453 1.793-2.766 1.653-4.832 4.231-6.2 7.735-1.312 3.39-1.964 7.379-1.964 11.968 0 3.532 0.539 6.954 1.625 10.258 2.304 6.867 7.121 10.301 14.445 10.301 2.535 0 5.086-1.27 7.648-3.805 1.285-1.254 2.309-2.519 3.078-3.8 0.805-1.36 1.485-2.512 1.875-3.309 0.258-0.524 0.79-0.852 1.372-0.836 0.605 0.016 5.687-0.047 5.687-0.047 0.996 0 1.867 0.356 2.605 1.07 0.715 0.711 1.071 1.582 1.071 2.606v13.336c0 0.996-0.356 1.867-1.071 2.605-0.738 0.711-1.609 1.071-2.605 1.071h-2.18c-1.027 0-1.894-0.36-2.605-1.071-0.715-0.711-1.07-1.566-1.07-2.562-3.79 3.078-8.336 4.613-13.633 4.613-5.215 0-9.891-1.195-14.02-3.59-4.187-2.508-7.48-6.082-9.875-10.726-2.363-4.586-3.547-9.973-3.547-16.157 0-5.64 1.039-10.914 3.121-15.812 2.395-5.641 6.04-9.832 10.942-12.566 3.644-2.024 7.535-3.036 11.668-3.036 0.969 0 1.98 0.059 3.035 0.172 5.269 0.629 9.941 2.649 14.019 6.071 2.907 2.449 5.34 6.054 7.309 10.812 0.938 2.25 1.59 4.141 1.734 4.684 0.012 0.043 0.024 0.195 8e-3 0.273-0.125 0.66-0.707 1.059-1.371 1.152"/>
  <path d="m333.87 108.72c-2.707 1.652-5.371 2.476-7.992 2.476-1.738 0-3.121-0.383-4.149-1.152-0.824-0.625-1.523-1.039-2.093-1.238-0.571-0.172-0.856-0.102-0.856 0.215 0 0.792-1.222 1.195-3.676 1.195h-7.949c-0.996 0-1.867-0.356-2.605-1.07-0.715-0.711-1.071-1.583-1.071-2.606v-2.18c0-1 0.274-1.867 0.813-2.609 0.543-0.711 1.199-1.066 1.969-1.066 0.765 0 1.422-0.36 1.965-1.071 0.539-0.742 0.812-1.609 0.812-2.605v-17.91c0-1.024-0.273-1.895-0.812-2.606-0.543-0.711-1.2-1.066-1.965-1.066-0.77 0-1.426-0.36-1.969-1.071-0.539-0.742-0.813-1.609-0.813-2.609v-2.176c0-1.027 0.356-1.898 1.071-2.609 0.738-0.711 1.609-1.07 2.605-1.07h14.106c1.027 0 1.894 0.359 2.605 1.07 0.715 0.711 1.071 1.582 1.071 2.609v2.176c0 1-0.274 1.867-0.813 2.609-0.512 0.711-1.152 1.071-1.922 1.071-0.742 0-1.383 0.355-1.926 1.066-0.511 0.711-0.769 1.582-0.769 2.606v9.918c0 2.793 0.344 5.328 1.027 7.605 0.656 2.024 1.91 3.234 3.762 3.633 0.484 0.113 0.969 0.172 1.453 0.172 0.883 0 1.762-0.196 2.562-0.563 1.25-0.574 2.063-0.968 2.438-1.187 0.512-0.317 1.195 0.668 2.051 2.949l1.109 2.988c0.344 0.942 0.516 1.824 0.516 2.653-0.028 0.796-0.215 1.281-0.555 1.453"/>
  <path d="m367.34 77.563c-1.938-2.219-4.375-3.332-7.309-3.332-2.906 0-5.343 1.093-7.308 3.289-2.082 2.394-3.121 5.945-3.121 10.644 0 4.672 1.039 8.207 3.121 10.598 1.965 2.222 4.402 3.336 7.308 3.336 2.907-0.032 5.328-1.157 7.266-3.375 2.137-2.395 3.203-5.914 3.203-10.559 0-4.676-1.051-8.207-3.16-10.601zm7.48 27.656c-2.507 2.562-5.812 4.387-9.918 5.469-1.593 0.398-3.347 0.613-5.257 0.64-5.414 0-10.043-1.679-13.891-5.043-3.02-2.621-5.141-7.207-6.367-13.761-0.457-2.422-0.684-3.973-0.684-4.661 0-7.093 1.965-12.679 5.899-16.754 3.277-3.359 7.422-5.339 12.437-5.941 0.91-0.082 1.809-0.125 2.692-0.125 3.847 0 7.421 0.91 10.726 2.734 3.336 1.825 5.871 4.403 7.609 7.735 1.825 3.535 2.735 7.582 2.735 12.137 0 1.027-0.039 2.097-0.129 3.207-0.57 6.125-2.52 10.914-5.852 14.363"/>
  <path d="m415.29 90.43c-1.965 0.824-5.469 1.922-10.512 3.289-3.593 0.941-5.488 1.453-5.687 1.539-1.766 0.742-2.649 1.695-2.649 2.863 0 1.199 0.727 2.098 2.18 2.692 1.309 0.574 2.949 0.859 4.914 0.859 2.879 0 4.715-0.758 5.516-2.27 0.715-1.324 1.285-2.546 1.637-3.41 0.281-0.695 0.976-1.121 1.722-1.058 0.563 0.043 1.309 0.117 2.238 0.238l2.778 0.387c0.996 0.14 1.851 0.625 2.566 1.453 0.711 0.824 1.067 1.738 1.067 2.734v6.41c0 1.028-0.356 1.895-1.067 2.61-0.715 0.711-1.582 1.066-2.609 1.066h-0.043c-0.996 0-1.91-0.183-2.735-0.555-0.796-0.398-1.253-0.871-1.367-1.41-2.453 1.965-5.855 2.949-10.215 2.949-4.332 0-8.066-1.082-11.199-3.25-3.703-2.535-5.554-5.968-5.554-10.3 0-5.071 2.32-8.703 6.964-10.899 1.598-0.824 4.704-1.75 9.321-2.777 3.843-0.824 6.55-1.766 8.117-2.82 0.855-0.543 1.285-1.297 1.285-2.266 0-1.539-0.785-2.734-2.352-3.59-1.453-0.769-3.222-1.152-5.3-1.152-2.508 0-4.532 0.582-6.071 1.75-1.023 0.769-1.589 1.355-1.707 1.754-0.328 1.09-0.668 2.121-0.918 2.972-0.343 1.153-1.461 1.883-2.652 1.735-0.402-0.051-0.863-0.11-1.387-0.176l-2.863-0.387c-1-0.113-1.855-0.582-2.566-1.41-0.711-0.797-1.071-1.711-1.071-2.734v-8.078c0-1.028 0.36-1.895 1.071-2.606 0.738-0.715 1.609-1.07 2.605-1.07h0.043c0.996 0 1.91 0.258 2.738 0.769 0.825 0.543 1.325 1.196 1.496 1.965 2.704-2.422 6.481-3.633 11.325-3.633 7.41 0 12.695 2.379 15.855 7.137 1.567 2.367 2.352 4.875 2.352 7.524 0 5.386-2.422 9.105-7.266 11.156"/>
  <path d="m457.46 90.43c-1.965 0.824-5.469 1.922-10.512 3.289-3.59 0.941-5.484 1.453-5.683 1.539-1.77 0.742-2.653 1.695-2.653 2.863 0 1.199 0.727 2.098 2.18 2.692 1.313 0.574 2.949 0.859 4.914 0.859 2.879 0 4.719-0.758 5.516-2.27 0.715-1.324 1.289-2.546 1.636-3.41 0.282-0.695 0.977-1.121 1.723-1.058 0.567 0.043 1.309 0.117 2.238 0.238l2.778 0.387c1 0.14 1.855 0.625 2.566 1.453 0.711 0.824 1.067 1.738 1.067 2.734v6.41c0 1.028-0.356 1.895-1.067 2.61-0.711 0.711-1.582 1.066-2.609 1.066h-0.039c-1 0-1.91-0.183-2.739-0.555-0.796-0.398-1.253-0.871-1.367-1.41-2.449 1.965-5.855 2.949-10.215 2.949-4.332 0-8.062-1.082-11.199-3.25-3.703-2.535-5.554-5.968-5.554-10.3 0-5.071 2.32-8.703 6.964-10.899 1.598-0.824 4.703-1.75 9.321-2.777 3.843-0.824 6.55-1.766 8.121-2.82 0.855-0.543 1.281-1.297 1.281-2.266 0-1.539-0.785-2.734-2.352-3.59-1.453-0.769-3.218-1.152-5.3-1.152-2.504 0-4.528 0.582-6.067 1.75-1.027 0.769-1.59 1.355-1.711 1.754-0.328 1.09-0.668 2.121-0.918 2.972-0.339 1.153-1.457 1.883-2.652 1.735-0.402-0.051-0.863-0.11-1.387-0.176l-2.863-0.387c-1-0.113-1.855-0.582-2.566-1.41-0.711-0.797-1.067-1.711-1.067-2.734v-8.078c0-1.028 0.356-1.895 1.067-2.606 0.742-0.715 1.609-1.07 2.609-1.07h0.043c0.996 0 1.906 0.258 2.734 0.769 0.825 0.543 1.325 1.196 1.496 1.965 2.707-2.422 6.481-3.633 11.325-3.633 7.41 0 12.695 2.379 15.855 7.137 1.57 2.367 2.352 4.875 2.352 7.524 0 5.386-2.422 9.105-7.266 11.156"/>
 </g>
 <g transform="matrix(1.3333,0,0,-1.3333,-119.48,188.18)" fill="#ee2e21">
  <path d="m518.99 87.777c-0.625 0.09-1.437 0.184-2.054 0.184 0 0-5.461 0.035-6.129 0.055-0.614 0.019-1.231-0.207-1.625-0.68-0.071-0.086-0.122-0.168-0.137-0.242-0.883-3.531-2.567-6.438-5.043-8.719-2.309-2.078-4.961-3.316-7.949-3.715-0.598-0.058-1.172-0.086-1.711-0.086-2.282 0-4.43 0.598-6.453 1.793-2.766 1.653-4.829 4.231-6.2 7.735-1.308 3.39-1.964 7.379-1.964 11.968 0 3.532 0.539 6.954 1.625 10.258 2.308 6.867 7.121 10.301 14.445 10.301 2.535 0 5.086-1.27 7.652-3.805 1.281-1.254 2.305-2.519 3.074-3.8 0.809-1.36 1.485-2.512 1.875-3.309 0.258-0.524 0.79-0.852 1.372-0.836 0.609 0.016 5.687-0.047 5.687-0.047 0.996 0 1.867 0.356 2.609 1.07 0.711 0.711 1.067 1.582 1.067 2.606v13.336c0 0.996-0.356 1.867-1.067 2.605-0.742 0.711-1.613 1.071-2.609 1.071h-2.18c-1.023 0-1.894-0.36-2.605-1.071-0.715-0.711-1.07-1.566-1.07-2.562-3.79 3.078-8.332 4.613-13.633 4.613-5.215 0-9.887-1.195-14.02-3.59-4.187-2.508-7.48-6.082-9.875-10.726-2.363-4.586-3.547-9.973-3.547-16.157 0-5.64 1.043-10.914 3.121-15.812 2.395-5.641 6.04-9.832 10.942-12.566 3.648-2.024 7.535-3.036 11.668-3.036 0.969 0 1.98 0.059 3.035 0.172 5.269 0.629 9.945 2.649 14.019 6.071 2.907 2.449 5.34 6.054 7.309 10.812 0.938 2.25 1.594 4.141 1.734 4.684 0.012 0.043 0.024 0.195 8e-3 0.273-0.125 0.66-0.703 1.059-1.371 1.152"/>
  <path d="m553.43 77.563c-1.938-2.219-4.375-3.332-7.309-3.332-2.906 0-5.344 1.093-7.308 3.289-2.079 2.394-3.121 5.945-3.121 10.644 0 4.672 1.042 8.207 3.121 10.598 1.964 2.222 4.402 3.336 7.308 3.336 2.906-0.032 5.328-1.157 7.266-3.375 2.137-2.395 3.207-5.914 3.207-10.559 0-4.676-1.055-8.207-3.164-10.601zm7.48 27.656c-2.508 2.562-5.812 4.387-9.918 5.469-1.593 0.398-3.347 0.613-5.258 0.64-5.414 0-10.042-1.679-13.886-5.043-3.024-2.621-5.246-5.543-6.473-12.094-0.453-2.421-0.582-5.64-0.582-6.328 0-7.093 1.965-12.679 5.899-16.754 3.277-3.359 7.421-5.339 12.437-5.941 0.91-0.082 1.809-0.125 2.691-0.125 3.848 0 7.422 0.91 10.731 2.734 3.332 1.825 5.867 4.403 7.605 7.735 1.825 3.535 2.735 7.582 2.735 12.137 0 1.027-0.039 2.097-0.125 3.207-0.571 6.125-2.524 10.914-5.856 14.363"/>
  <path d="m638.99 75.43c-0.769 0-1.426 0.355-1.969 1.066-0.539 0.711-0.812 1.582-0.812 2.606v16.586c0 4.671-1.168 8.363-3.504 11.07-2.562 2.961-6.195 4.441-10.898 4.441-4.844 0-8.934-1.879-12.266-5.64-2.367 3.761-6.324 5.64-11.883 5.64-3.133 0-5.996-0.867-8.59-2.605-0.828-0.57-1.609-0.883-2.351-0.942-0.711-0.027-1.168 0.215-1.367 0.727-0.457 1.227-1.911 1.84-4.36 1.84h-6.156c-0.996 0-1.863-0.356-2.606-1.07-0.71-0.711-1.066-1.583-1.066-2.606v-2.18c0-1 0.297-1.867 0.895-2.609 0.597-0.711 1.328-1.066 2.179-1.066 0.856 0 1.582-0.36 2.18-1.071 0.598-0.742 0.898-1.609 0.898-2.605v-17.91c0-1.024-0.269-1.895-0.812-2.606s-1.195-1.066-1.965-1.066c-0.769 0-1.426-0.36-1.965-1.071-0.543-0.742-0.812-1.609-0.812-2.609v-2.176c0-1.027 0.355-1.898 1.066-2.609 0.715-0.711 1.582-1.07 2.61-1.07h14.105c0.996 0 1.863 0.359 2.605 1.07 0.711 0.711 1.067 1.582 1.067 2.609v2.176c0 1-0.27 1.867-0.809 2.609-0.543 0.711-1.183 1.071-1.926 1.071-0.769 0-1.425 0.355-1.964 1.066-0.543 0.711-0.813 1.582-0.813 2.606v9.703c0 3.535 0.356 6.199 1.07 7.992 0.539 1.512 1.481 2.707 2.821 3.59 1.336 0.883 2.847 1.324 4.527 1.324 1.539 0 2.766-0.656 3.676-1.965 0.484-0.683 0.797-1.355 0.941-2.008 0.598-2.367 0.899-4.773 0.899-7.222v-20.942c0-1.027 0.355-1.898 1.066-2.609s1.582-1.07 2.609-1.07h8.504c1.028 0 1.895 0.359 2.61 1.07 0.711 0.711 1.066 1.582 1.066 2.609v2.176c0 1-0.269 1.867-0.812 2.609-0.512 0.711-1.153 1.071-1.922 1.071-0.742 0-1.383 0.355-1.922 1.066-0.516 0.711-0.77 1.582-0.77 2.606v12.308c0 3.078 0.653 5.516 1.965 7.313 1.453 1.992 3.531 2.988 6.239 2.988 2.593 0 4.273-0.98 5.042-2.949 0.227-0.656 0.36-1.223 0.387-1.707 0.086-2.453 0.129-4.903 0.129-7.352v-20.129c0-1.027 0.356-1.898 1.067-2.609 0.714-0.711 1.582-1.07 2.609-1.07h8.59c1.027 0 1.894 0.359 2.605 1.07 0.742 0.711 1.113 1.582 1.113 2.609v2.176c0 1-0.285 1.867-0.855 2.609-0.543 0.711-1.195 1.071-1.965 1.071"/>
  <path d="m678.4 77.992c-1.625-3.023-4.062-4.531-7.308-4.531-2.481 0-4.606 1.039-6.371 3.121-1.852 2.223-2.778 5.742-2.778 10.555 0 3.762 0.743 7.012 2.223 9.746 1.711 3.133 4.133 4.699 7.266 4.699 3.078 0 5.414-1.48 7.008-4.441 1.398-2.539 2.097-5.688 2.097-9.45 0-3.871-0.715-7.109-2.137-9.699zm3.887 29.446c-3.019 2.054-6.437 3.078-10.254 3.078-4.363 0-8.051-1.481-11.074-4.446v0.043c-0.367 0.942-1.055 1.754-2.051 2.438-0.968 0.656-1.965 0.984-2.992 0.984h-6.152c-0.996 0-1.867-0.359-2.61-1.07-0.711-0.711-1.066-1.582-1.066-2.606v-2.179c0-1 0.297-1.867 0.898-2.61 0.598-0.711 1.309-1.066 2.137-1.066 0.852 0 1.567-0.359 2.137-1.07 0.597-0.739 0.894-1.61 0.894-2.606v-33.551c0-1-0.269-1.851-0.808-2.566-0.543-0.742-1.199-1.109-1.969-1.109s-1.426-0.36-1.965-1.071-0.812-1.582-0.812-2.605v-2.18c0-1.027 0.355-1.898 1.07-2.609 0.711-0.711 1.582-1.067 2.605-1.067h14.106c0.996 0 1.867 0.356 2.605 1.067 0.715 0.711 1.071 1.582 1.071 2.609v2.18c0 1.023-0.274 1.894-0.813 2.605-0.543 0.711-1.183 1.071-1.926 1.071-0.769 0-1.421 0.367-1.964 1.109-0.54 0.715-0.813 1.566-0.813 2.566v4.317c2.566-1.852 5.574-2.778 9.02-2.778 3.703 0 7.136 1.04 10.3 3.118 3.079 2.082 5.356 4.843 6.84 8.293 1.649 3.531 2.477 7.507 2.477 11.922 0 4.191-0.742 8.007-2.223 11.457-1.48 3.562-3.703 6.339-6.668 8.332"/>
  <path d="m740.03 109.83h-14.062c-1.024 0-1.895-0.355-2.606-1.066-0.714-0.715-1.07-1.582-1.07-2.61v-2.179c0-0.996 0.258-1.864 0.77-2.606 0.543-0.715 1.183-1.07 1.925-1.07 0.739 0 1.379-0.356 1.922-1.067 0.512-0.742 0.77-1.609 0.77-2.609v-10.426c0-3.25-0.34-5.687-1.024-7.308-0.574-1.512-1.625-2.696-3.164-3.547-1.484-0.887-3.105-1.328-4.875-1.328-1.652 0-3.019 0.386-4.101 1.156-1.141 0.824-1.895 1.949-2.266 3.375-0.172 0.769-0.269 1.852-0.297 3.25-0.058 2.449-0.086 4.898-0.086 7.348v7.48c0 1 0.254 1.867 0.77 2.609 0.484 0.711 1.066 1.067 1.75 1.067 0.711 0 1.312 0.355 1.797 1.07 0.484 0.742 0.726 1.61 0.726 2.606v2.179c0 1.028-0.359 1.895-1.07 2.61-0.711 0.711-1.578 1.066-2.606 1.066h-14.105c-0.996 0-1.867-0.355-2.605-1.066-0.715-0.715-1.071-1.582-1.071-2.61v-2.179c0-0.996 0.301-1.864 0.899-2.606 0.597-0.715 1.308-1.07 2.136-1.07 0.825 0 1.539-0.356 2.137-1.067 0.57-0.742 0.856-1.609 0.856-2.609v-13.805c0-3.105 0.14-5.382 0.425-6.836 0.77-3.707 2.621-6.554 5.559-8.55 2.676-1.879 5.926-2.821 9.742-2.821 4.844 0 8.906 1.641 12.184 4.914l0.168-0.554c0.316-0.938 0.957-1.754 1.925-2.434 0.942-0.687 1.907-1.027 2.907-1.027h5.64c0.996 0 1.852 0.355 2.567 1.07 0.738 0.711 1.109 1.578 1.109 2.606v2.179c0 0.996-0.269 1.867-0.812 2.606-0.571 0.715-1.239 1.07-2.008 1.07-0.742 0-1.399 0.356-1.969 1.07-0.539 0.711-0.809 1.578-0.809 2.606v17.906c0 1 0.27 1.867 0.809 2.609 0.57 0.711 1.227 1.067 1.969 1.067 0.769 0 1.437 0.355 2.008 1.07 0.543 0.742 0.812 1.61 0.812 2.606v2.179c0 1.028-0.371 1.895-1.109 2.61-0.715 0.711-1.571 1.066-2.567 1.066"/>
  <path d="m767.81 111.12c-0.997 0-1.852 0.367-2.563 1.11-0.684 0.711-1.027 1.566-1.027 2.562v8.422c0 0.996-0.285 1.637-0.856 1.922-0.57 0.285-1.254 0.113-2.051-0.512l-4.574-3.59c-1.933-1.511-2.906-3.488-2.906-5.941v-0.301c0-0.996-0.285-1.851-0.852-2.562-0.574-0.743-1.253-1.11-2.054-1.11-0.824 0-1.524-0.359-2.094-1.07-0.57-0.715-0.852-1.582-0.852-2.609v-1.45c0-1.027 0.282-1.898 0.852-2.609s1.27-1.07 2.094-1.07c0.801 0 1.48-0.368 2.054-1.11 0.567-0.711 0.852-1.566 0.852-2.562v-18.465c0-4.418 0.344-7.379 1.027-8.891 1.539-3.59 4.817-5.386 9.832-5.386h1.579c0.996 0 1.898 0.039 2.609 0.078 0.992 0.058 1.812 0.785 2.008 1.765 0.136 0.707 0.258 1.602 0.258 2.602l-0.032 2.137c0 0.996-0.051 1.734-0.394 2.418 0 4e-3 -4e-3 0.011-8e-3 0.015-0.262 0.492-0.781 0.789-1.336 0.801l-1.352 0.031c-1.14-0.058-1.824 0.098-2.05 0.071-0.828 0.054-1.356 0.339-1.582 0.855l-0.129 0.34c-0.028 1.851-0.043 4.004-0.043 6.457v15.172c0 0.996 0.343 1.851 1.027 2.562 0.711 0.742 1.566 1.11 2.563 1.11 0.968 0 1.808 0.359 2.523 1.07 0.711 0.711 1.066 1.582 1.066 2.609v1.45c0 1.027-0.355 1.894-1.066 2.609-0.715 0.711-1.555 1.07-2.523 1.07"/>
  <path d="m786.91 93.336c0.457 2.449 1.398 4.402 2.82 5.855 1.797 1.938 4.075 2.907 6.84 2.907 2.762 0 4.985-0.957 6.668-2.864 0.856-0.941 1.367-1.726 1.539-2.351 0.285-0.969 0.172-1.809-0.343-2.52-0.54-0.687-1.309-1.027-2.305-1.027zm3.25-8.762h22.867c1.422 0.114 2.391 0.453 2.903 1.024 0.515 0.57 0.812 1.484 0.898 2.738 0 5.781-1.48 10.785-4.445 15-3.672 5.273-8.973 7.906-15.899 7.906-6.554 0-11.738-2.363-15.554-7.093-3.508-4.301-5.258-9.758-5.258-16.368 0-6.672 1.808-12.07 5.426-16.199 3.875-4.363 9.132-6.539 15.773-6.539 4.414 0 8.746 1.895 12.992 5.684 1.68 1.879 3.106 3.761 4.274 5.64 0.996 2.137 0.269 3.203-2.18 3.203h-7.609c-1.739-3.586-4.215-5.382-7.434-5.382-3.164 0-5.703 1.168-7.609 3.503-0.997 1.227-1.625 2.336-1.883 3.336-0.254 0.997-0.114 1.836 0.429 2.52 0.54 0.684 1.309 1.027 2.309 1.027"/>
 </g>
 <path d="m103.43 11.491-14.741 22.058c8.5805 6.8438 14.098 17.376 14.125 29.174-0.026 11.796-5.5445 22.327-14.125 29.171l14.741 22.059c15.664-11.638 25.841-30.269 25.869-51.231-0.0287-20.965-10.206-39.595-25.869-51.232" fill="#ee2e21" stroke-width="1.3333"/>
 <path d="m27.516 113.96 14.738-22.059c-8.5805-6.8438-14.096-17.376-14.122-29.171 0.025999-11.799 5.5412-22.33 14.122-29.174l-14.738-22.058c-15.666 11.638-25.843 30.267-25.869 51.232 0.025999 20.962 10.203 39.594 25.869 51.231" fill="#448cd2" stroke-width="1.3333"/>
</svg>
